name ./resultDataOpenSim/trcMotMarkerGrf/sub10/grf-14-01.mot
datacolumns 19
datarows 30
range 0.90800000 1.02400000
endheader

                time	     ground_force_vx	     ground_force_vy	     ground_force_vz	     ground_force_px	     ground_force_py	     ground_force_pz	   l_ground_force_vx	   l_ground_force_vy	   l_ground_force_vz	   l_ground_force_px	   l_ground_force_py	   l_ground_force_pz	     ground_torque_x	     ground_torque_y	     ground_torque_z	   l_ground_torque_x	   l_ground_torque_y	   l_ground_torque_z	
          0.90800000	          0.00000000	          0.00000000	          0.00000000	          0.00000000	          0.00000000	          0.00000000	         36.52202134	        514.73666170	         -3.48512197	          0.05334587	         -0.07500000	         -0.09039117	          0.00000000	          0.00000000	          0.00000000	          0.00000000	         -3.05039828	          0.00000000	
          0.91200000	          0.00000000	          0.00000000	          0.00000000	          0.00000000	          0.00000000	          0.00000000	         40.84747138	        517.44641695	         -4.01283853	          0.05381712	         -0.07500000	         -0.09000650	          0.00000000	          0.00000000	          0.00000000	          0.00000000	         -3.17100345	          0.00000000	
          0.91600000	          0.00000000	          0.00000000	          0.00000000	          0.00000000	          0.00000000	          0.00000000	         45.34952692	        521.44049436	         -4.36799261	          0.05419414	         -0.07500000	         -0.08966475	          0.00000000	          0.00000000	          0.00000000	          0.00000000	         -3.28291066	          0.00000000	
          0.92000000	          0.00000000	          0.00000000	          0.00000000	          0.00000000	          0.00000000	          0.00000000	         50.04121591	        526.88615350	         -4.62083648	          0.05453685	         -0.07500013	         -0.08932391	          0.00000000	          0.00000000	          0.00000000	          0.00000000	         -3.39105095	          0.00000000	
          0.92400000	          0.00000000	          0.00000000	          0.00000000	          0.00000000	          0.00000000	          0.00000000	         54.95655449	        533.84217057	         -4.85422783	          0.05491069	         -0.07500080	         -0.08893380	          0.00000000	          0.00000000	          0.00000000	          0.00000000	         -3.50089602	          0.00000000	
          0.92800000	          0.00000000	          0.00000000	          0.00000000	          0.00000000	          0.00000000	          0.00000000	         60.11556419	        542.19808775	         -5.13162460	          0.05537184	         -0.07500100	         -0.08846206	          0.00000000	          0.00000000	          0.00000000	          0.00000000	         -3.61742619	          0.00000000	
          0.93200000	          0.00000000	          0.00000000	          0.00000000	          0.00000000	          0.00000000	          0.00000000	         65.52433436	        551.69393658	         -5.48001043	          0.05594631	         -0.07500100	         -0.08790899	          0.00000000	          0.00000000	          0.00000000	          0.00000000	         -3.74403111	          0.00000000	
          0.93600000	          0.00000000	          0.00000000	          0.00000000	          0.00000000	          0.00000000	          0.00000000	         71.18834596	        562.00723554	         -5.89440257	          0.05663117	         -0.07500100	         -0.08729467	          0.00000000	          0.00000000	          0.00000000	          0.00000000	         -3.88164560	          0.00000000	
          0.94000000	          0.00000000	          0.00000000	          0.00000000	          0.00000000	          0.00000000	          0.00000000	         77.11416707	        572.84647198	         -6.35451006	          0.05736413	         -0.07500160	         -0.08666010	          0.00000000	          0.00000000	          0.00000000	          0.00000000	         -4.02844653	          0.00000000	
          0.94400000	          0.00000000	          0.00000000	          0.00000000	          0.00000000	          0.00000000	          0.00000000	         83.30901126	        583.99632076	         -6.84017320	          0.05804520	         -0.07500200	         -0.08605197	          0.00000000	          0.00000000	          0.00000000	          0.00000000	         -4.18021451	          0.00000000	
          0.94800000	          0.00000000	          0.00000000	          0.00000000	          0.00000000	          0.00000000	          0.00000000	         89.76890352	        595.27943904	         -7.33963517	          0.05858930	         -0.07500200	         -0.08550916	          0.00000000	          0.00000000	          0.00000000	          0.00000000	         -4.33118060	          0.00000000	
          0.95200000	          0.00000000	          0.00000000	          0.00000000	          0.00000000	          0.00000000	          0.00000000	         96.44852707	        606.47453828	         -7.85776118	          0.05897264	         -0.07500200	         -0.08505178	          0.00000000	          0.00000000	          0.00000000	          0.00000000	         -4.47503775	          0.00000000	
          0.95600000	          0.00000000	          0.00000000	          0.00000000	          0.00000000	          0.00000000	          0.00000000	        103.25364332	        617.28118039	         -8.42619437	          0.05923758	         -0.07500200	         -0.08468284	          0.00000000	          0.00000000	          0.00000000	          0.00000000	         -4.60580182	          0.00000000	
          0.96000000	          0.00000000	          0.00000000	          0.00000000	          0.00000000	          0.00000000	          0.00000000	        110.07622802	        627.37657549	         -9.09797646	          0.05945173	         -0.07500200	         -0.08440275	          0.00000000	          0.00000000	          0.00000000	          0.00000000	         -4.71832848	          0.00000000	
          0.96400000	          0.00000000	          0.00000000	          0.00000000	          0.00000000	          0.00000000	          0.00000000	        116.83076011	        636.51453521	         -9.91992068	          0.05966949	         -0.07500200	         -0.08420542	          0.00000000	          0.00000000	          0.00000000	          0.00000000	         -4.80852707	          0.00000000	
          0.96800000	          0.00000000	          0.00000000	          0.00000000	          0.00000000	          0.00000000	          0.00000000	        123.46791928	        644.56530785	        -10.90605889	          0.05991420	         -0.07500200	         -0.08407048	          0.00000000	          0.00000000	          0.00000000	          0.00000000	         -4.87350440	          0.00000000	
          0.97200000	          0.00000000	          0.00000000	          0.00000000	          0.00000000	          0.00000000	          0.00000000	        129.97255233	        651.47515694	        -12.03034009	          0.06017001	         -0.07500200	         -0.08398112	          0.00000000	          0.00000000	          0.00000000	          0.00000000	         -4.91181722	          0.00000000	
          0.97600000	          0.00000000	          0.00000000	          0.00000000	          0.00000000	          0.00000000	          0.00000000	        136.33668922	        657.21112469	        -13.23197675	          0.06040294	         -0.07500200	         -0.08392220	          0.00000000	          0.00000000	          0.00000000	          0.00000000	         -4.92375123	          0.00000000	
          0.98000000	          0.00000000	          0.00000000	          0.00000000	          0.00000000	          0.00000000	          0.00000000	        142.53126788	        661.71332697	        -14.42882637	          0.06059209	         -0.07500200	         -0.08385526	          0.00000000	          0.00000000	          0.00000000	          0.00000000	         -4.91132866	          0.00000000	
          0.98400000	          0.00000000	          0.00000000	          0.00000000	          0.00000000	          0.00000000	          0.00000000	        148.51890061	        664.83457920	        -15.54262285	          0.06074605	         -0.07500192	         -0.08372114	          0.00000000	          0.00000000	          0.00000000	          0.00000000	         -4.87778014	          0.00000000	
          0.98800000	          0.00000000	          0.00000000	          0.00000000	          0.00000000	          0.00000000	          0.00000000	        154.27679860	        666.29570949	        -16.52673026	          0.06089466	         -0.07500144	         -0.08348078	          0.00000000	          0.00000000	          0.00000000	          0.00000000	         -4.82649655	          0.00000000	
          0.99200000	          0.00000000	          0.00000000	          0.00000000	          0.00000000	          0.00000000	          0.00000000	        159.78498565	        665.70976765	        -17.37707180	          0.06106662	         -0.07500100	         -0.08313210	          0.00000000	          0.00000000	          0.00000000	          0.00000000	         -4.75979181	          0.00000000	
          0.99600000	          0.00000000	          0.00000000	          0.00000000	          0.00000000	          0.00000000	          0.00000000	        164.99374692	        662.66563215	        -18.11865893	          0.06126164	         -0.07500100	         -0.08270354	          0.00000000	          0.00000000	          0.00000000	          0.00000000	         -4.67793324	          0.00000000	
          1.00000000	          0.00000000	          0.00000000	          0.00000000	          0.00000000	          0.00000000	          0.00000000	        169.79757399	        656.80189491	        -18.77774668	          0.06145991	         -0.07500100	         -0.08225450	          0.00000000	          0.00000000	          0.00000000	          0.00000000	         -4.57880165	          0.00000000	
          1.00400000	          0.00000000	          0.00000000	          0.00000000	          0.00000000	          0.00000000	          0.00000000	        174.03350857	        647.81986048	        -19.35904069	          0.06164232	         -0.07500004	         -0.08185262	          0.00000000	          0.00000000	          0.00000000	          0.00000000	         -4.45832174	          0.00000000	
          1.00800000	          0.00000000	          0.00000000	          0.00000000	          0.00000000	          0.00000000	          0.00000000	        177.50344067	        635.46044493	        -19.84433395	          0.06181136	         -0.07500000	         -0.08154659	          0.00000000	          0.00000000	          0.00000000	          0.00000000	         -4.31155283	          0.00000000	
          1.01200000	         -9.18411926	         56.73132227	         11.11523965	          0.77297900	          0.00000000	          0.01029521	        179.99266596	        619.51278929	        -20.21206962	          0.06197014	         -0.07500000	         -0.08136894	          0.00000000	          0.40496299	          0.00000000	          0.00000000	         -4.13412887	          0.00000000	
          1.01600000	        -20.43044199	        164.36582084	         18.86986862	          0.77568476	          0.00000000	          0.01037001	        181.27767491	        599.85026799	        -20.45764297	          0.06214083	         -0.07499916	         -0.08131947	          0.00000000	          0.21718913	          0.00000000	          0.00000000	         -3.92360722	          0.00000000	
          1.02000000	        -30.13694473	        255.04460571	         25.20251536	          0.77812146	          0.00000000	          0.01047773	        181.15275232	        576.43044053	        -20.59110970	          0.06235969	         -0.07499833	         -0.08137060	          0.00000000	          0.00411833	          0.00000000	          0.00000000	         -3.68028468	          0.00000000	
          1.02400000	        -37.54377034	        317.49416331	         29.20556001	          0.77989110	          0.00000000	          0.01071631	        179.47540188	        549.27270547	        -20.61131995	          0.06265449	         -0.07499804	         -0.08149364	          0.00000000	         -0.24090423	          0.00000000	          0.00000000	         -3.40729597	          0.00000000	
